# xmcd CD database file
#
# Track frame offsets:
#	150
#	16630
#	44820
#	76416
#	100752
#	145409
#	160634
#	181778
#	195125
#
# Disc length: 3197 seconds
#
# Revision: 1
# Processed by: cddbd v1.4PL0 Copyright (c) Steve Scherf et al.
# Submitted via: CDex 1.40Release
#
DISCID=620c7b09
DTITLE=Töpel und Häder - Blues nach Vorschrift
DYEAR=2002
DGENRE=Blues
TTITLE0=Lantina
TTITLE1=Der Ernst des Lebens
TTITLE2=Jeder mag Dich
TTITLE3=Töphäd Stomp
TTITLE4=Viel Spaß
TTITLE5=Nervös
TTITLE6=Manchmal bin ich traurig
TTITLE7=Blues nach Vorschrift
TTITLE8=Viel Spaß (instrumental)
EXTD=YEAR: 2002 ID3G: 0
EXTT0=
EXTT1=
EXTT2=
EXTT3=
EXTT4=
EXTT5=
EXTT6=
EXTT7=
EXTT8=
PLAYORDER=
